<svg id="Layer_1" data-name="Layer 1" xmlns="http://www.w3.org/2000/svg" viewBox="0 0 87.06 24.18"><defs><style>.cls-1{fill:#3e5170;}.cls-2{fill:#dfa61b;}</style></defs><title>Artboard 1</title><path class="cls-1" d="M0,.18H4.85a11.82,11.82,0,0,1,3.26.3,3,3,0,0,1,2.17,2.91,3,3,0,0,1-.23,1.21A3.12,3.12,0,0,1,7.6,6.27a3.91,3.91,0,0,1,2.47,1.06,2.81,2.81,0,0,1,.69,1.88,3.34,3.34,0,0,1-2.08,3,8.25,8.25,0,0,1-3.39.46H0ZM3,2.52V5.13H5.34c.71,0,1.87,0,1.87-1.35s-1-1.26-1.65-1.26ZM3,7.4v3H5.17c1,0,2.41-.06,2.41-1.49S6.34,7.42,5.7,7.4Z"/><path class="cls-1" d="M15.19,4.4a4.35,4.35,0,0,1,2.68-1.06V5.75l-.9.14c-1.31.23-1.7.43-1.7,1.6v5.22H12.53V3.42h2.66Z"/><path class="cls-1" d="M28.54,8.06a4.64,4.64,0,0,1-5,4.92c-2.61,0-5-1.49-5-4.92,0-2.84,1.8-5.1,5.35-4.9A4.63,4.63,0,0,1,28.54,8.06ZM21.8,6.23A3.33,3.33,0,0,0,21.34,8c0,1.47.71,2.77,2.23,2.77s2.2-1.19,2.2-2.65A3.15,3.15,0,0,0,25,5.84a2,2,0,0,0-1.6-.52A1.84,1.84,0,0,0,21.8,6.23Z"/><path class="cls-1" d="M39.63,8.06a4.63,4.63,0,0,1-5,4.92c-2.61,0-5-1.49-5-4.92,0-2.84,1.79-5.1,5.34-4.9A4.63,4.63,0,0,1,39.63,8.06ZM32.89,6.23A3.33,3.33,0,0,0,32.43,8c0,1.47.71,2.77,2.24,2.77s2.2-1.19,2.2-2.65a3.11,3.11,0,0,0-.77-2.32,2,2,0,0,0-1.6-.52A1.84,1.84,0,0,0,32.89,6.23Z"/><path class="cls-1" d="M41.39.18h2.68V6.62l3-3.18h3.29l-3.2,3.3,3.6,6H47.61l-2.38-4-1.17,1.1v2.9H41.39Z"/><path class="cls-1" d="M52.2,2.52A2.73,2.73,0,0,1,52.59.94,2.86,2.86,0,0,1,55,0,12.5,12.5,0,0,1,56.6.16v2H56c-1,0-1.09.21-1.07,1.46h1.83V5.32H54.9v7.39H52.18V5.32H50.73V3.66H52.2Z"/><path class="cls-1" d="M58.08.16h2.69V2.27H58.08Zm0,3.26h2.69v9.29H58.08Z"/><path class="cls-1" d="M71.88,10.35a6.66,6.66,0,0,1-1.11,1.38,5.08,5.08,0,0,1-3.5,1.32,4.43,4.43,0,0,1-4.69-4.8c0-2.23,1.1-5.11,4.76-5.11a4.5,4.5,0,0,1,3.34,1.33A6.23,6.23,0,0,1,72,8.63H65.37a2.09,2.09,0,0,0,2.11,2.31A2.44,2.44,0,0,0,69.82,9.3ZM69.17,6.92a2.24,2.24,0,0,0-.51-1.31,1.94,1.94,0,0,0-1.34-.52,1.85,1.85,0,0,0-1.38.61,2.41,2.41,0,0,0-.55,1.22Z"/><path class="cls-1" d="M76.3.18V12.71H73.57V.18Z"/><path class="cls-1" d="M87.06.18V12.71H84.58v-.87A3.29,3.29,0,0,1,82.07,13a3.77,3.77,0,0,1-2.61-1.07,5.12,5.12,0,0,1-1.35-3.76c0-3.5,2-4.94,3.85-4.94a3.73,3.73,0,0,1,2.45.95v-4Zm-2.59,7.9a3.75,3.75,0,0,0-.59-2.29,1.42,1.42,0,0,0-1.06-.56c-1.94,0-1.94,2.44-1.94,2.85,0,1.29.36,2.87,1.74,2.87a1.61,1.61,0,0,0,.89-.28A3.11,3.11,0,0,0,84.47,8.08Z"/><path class="cls-2" d="M28.67,15.39h2.74a3.83,3.83,0,0,1,2.67.62,2.64,2.64,0,0,1,1,2.12,2.36,2.36,0,0,1-1.69,2.37L35.25,24H33.41L31.7,20.8H30.27V24h-1.6Zm1.6,1.39v2.69h.56c.55,0,.75,0,1.06,0a1.34,1.34,0,0,0,1.51-1.33A1.25,1.25,0,0,0,32.71,17a4,4,0,0,0-1.7-.18Z"/><path class="cls-2" d="M42,22.63a3.54,3.54,0,0,1-3,1.55,3,3,0,0,1-3.13-3.26,2.93,2.93,0,0,1,3-3.2,2.75,2.75,0,0,1,2.4,1.14,4.56,4.56,0,0,1,.62,2.38H37.4a1.63,1.63,0,0,0,1.73,1.51,1.77,1.77,0,0,0,1.58-.84ZM40.3,20.17a1.31,1.31,0,0,0-1.37-1.28,1.44,1.44,0,0,0-1.49,1.28Z"/><path class="cls-2" d="M43.63,22.19a2.15,2.15,0,0,0,1.76.78c.84,0,1.21-.41,1.21-.72s-.44-.48-.64-.52-1.2-.23-1.42-.29c-1.45-.35-1.72-1.19-1.72-1.73,0-1,.93-2,2.61-2a3.51,3.51,0,0,1,2,.58,3,3,0,0,1,.62.55l-1,1a1.69,1.69,0,0,0-1.65-.93c-.7,0-1,.3-1,.62s.46.56,1.24.69c1.26.24,1.62.3,2,.6a1.68,1.68,0,0,1,.62,1.3c0,.94-.86,2.08-2.75,2.08a4.14,4.14,0,0,1-2.92-1.09Z"/><path class="cls-2" d="M50.63,15.48V17H49.18V15.48Zm0,2.42V24H49.18V17.9Z"/><path class="cls-2" d="M57.54,15.39V24H56.09v-.59a2.11,2.11,0,0,1-1.69.77c-1.45,0-2.71-1.09-2.71-3.1,0-1.81,1-3.36,2.77-3.36a2.09,2.09,0,0,1,1.63.68v-3Zm-1.79,4.24a1.25,1.25,0,0,0-1.07-.56c-1,0-1.47.89-1.47,1.85,0,.11,0,1.94,1.44,1.94.76,0,1.44-.56,1.43-1.88A2.64,2.64,0,0,0,55.75,19.63Z"/><path class="cls-2" d="M64.69,22.63a3.54,3.54,0,0,1-3,1.55,3,3,0,0,1-3.13-3.26,2.93,2.93,0,0,1,3-3.2A2.75,2.75,0,0,1,64,18.86a4.57,4.57,0,0,1,.63,2.38H60.13a1.66,1.66,0,0,0,1.74,1.51,1.76,1.76,0,0,0,1.58-.84ZM63,20.17a1.31,1.31,0,0,0-1.37-1.28,1.45,1.45,0,0,0-1.49,1.28Z"/><path class="cls-2" d="M65.61,17.9h1.47v.72a1.76,1.76,0,0,1,.48-.47,2.52,2.52,0,0,1,1.4-.43,2,2,0,0,1,1.6.73,3.25,3.25,0,0,1,.37,2V24H69.48V20.89a5.29,5.29,0,0,0,0-.93,1,1,0,0,0-1-.81,1.27,1.27,0,0,0-1.12.68,3.51,3.51,0,0,0-.23,1.52V24H65.61Z"/><path class="cls-2" d="M74,19V21.7c0,.76,0,1.09.69,1.09a2,2,0,0,0,.61-.07V24a6.21,6.21,0,0,1-1.06.09c-.3,0-1.32,0-1.6-.74a3.82,3.82,0,0,1-.1-1.24V19h-.89V17.9h.89V15.75H74V17.9h1.3V19Z"/><path class="cls-2" d="M77.93,15.48V17H76.48V15.48Zm0,2.42V24H76.48V17.9Z"/><path class="cls-2" d="M79.27,19.69a2,2,0,0,1,.24-.91,2.73,2.73,0,0,1,2.43-1.06,3.67,3.67,0,0,1,1.83.39,1.62,1.62,0,0,1,.73,1.67V23a1.32,1.32,0,0,0,.26,1H83c0-.15,0-.39,0-.48a2.86,2.86,0,0,1-1.8.62A2,2,0,0,1,79,22.24a1.88,1.88,0,0,1,.19-.83,2.53,2.53,0,0,1,2-1.18A15.14,15.14,0,0,0,83,19.78c0-.31,0-.93-1-.93a1.29,1.29,0,0,0-1.08.39.7.7,0,0,0-.15.54ZM83,21a4.24,4.24,0,0,1-1.28.37c-.53.07-1.22.19-1.22.84,0,.47.4.72,1,.72A1.5,1.5,0,0,0,83,22.18a1.18,1.18,0,0,0,.09-.55Z"/><path class="cls-2" d="M87.06,15.39V24H85.58V15.39Z"/></svg>