<svg id="Layer_1" data-name="Layer 1" xmlns="http://www.w3.org/2000/svg" viewBox="0 0 332.24 145.51"><defs><style>.cls-1{fill:#ffd74a;}.cls-2{fill:#90c9c5;}.cls-3{fill:none;stroke:#fff;stroke-miterlimit:10;stroke-width:1.19px;}</style></defs><title>its-new-its-you</title><path class="cls-1" d="M4.19,6.42H17.41V85.89H4.19Z"/><path class="cls-1" d="M63.08,6.42V19.08H52.56V85.89H39.34V19.08H28.82V6.42Z"/><path class="cls-1" d="M74.29,6.38H90.17V18.69L85.72,33.85H76.47l2.3-13H74.29Z"/><path class="cls-1" d="M103.76,22.34q0-17.14,17.11-17.15T138,22.34V33.61H124.8V22.34q0-4.44-3.89-4.49h-.08q-3.85,0-3.85,4.49v7.07q0,4.85,10.16,12.14Q138,49.29,138,60.13V70q0,17.19-17.11,17.19T103.76,70V58.7H117V70q0,4.48,3.93,4.48T124.8,70v-8.9q0-5.28-10.16-12.58-10.89-7.74-10.88-18.86Z"/><path class="cls-1" d="M175.84,6.42H188.9l8.81,39.14V6.42H210.1V85.89H197l-8.42-38.06V85.89H175.84Z"/><path class="cls-1" d="M224.49,6.42h31.12V19.08H237.7V39.81h15.41v12.7H237.7V73.23h17.91V85.89H224.49Z"/><path class="cls-1" d="M311.84,64.9,318.9,6.42h13.34l-3.77,28.5-8,51H303.3l-5-43-4.92,43H276.27l-8.06-51L264.44,6.42h13.29L284.8,64.9l7.07-58.48h12.9Z"/><path class="cls-2" d="M56.69,90.39H57a1.35,1.35,0,0,1,1.3.81v.49q-2.77,5.24-2.77,8.5V102a1.88,1.88,0,0,0,1,1.8h1.3q2.18,0,7.69-4.91c.32,0,.65-.32,1-1a44.88,44.88,0,0,0,4.41-4.57c.16,0,.33-.33.49-1a3.1,3.1,0,0,1,1.47-.66H73q.33,0,.33.33a26.52,26.52,0,0,1-5.56,9.15q-4.86,4.67-8.33,5.56l-1.64.33q-5.71-.66-5.72-5.56c-.13,0-.24-.33-.32-1q1.22-6.45,3.59-8.66Zm9-13.41q1.71.33,1.8.33v.49q-.57,1.85-5.4,5.07a8.09,8.09,0,0,1-3.59,1.47c-1.09-.14-1.64-.68-1.64-1.64s1.75-2.07,5.23-3.76A18.4,18.4,0,0,1,65.68,77Z"/><path class="cls-2" d="M89.54,96.72a34.15,34.15,0,0,1-3.76,2.66q-7.23,4.77-9.89,4.78a2.54,2.54,0,0,1-2.73-2.42V100a16.37,16.37,0,0,1,.49-4,1.51,1.51,0,0,1-.17-.57c0-.32,1-3.53,3.11-9.6a39.43,39.43,0,0,0,2.61-5.52,7.54,7.54,0,0,0,1.07-2q6.36-.69,11.83-1.21c.87-.8,1-2.78-.1-2.89a2.05,2.05,0,0,1-1-.38,37.32,37.32,0,0,0-5.07.64H83.25c-.25,0-.4-.18-.45-.53q3.27-5.55,3.27-6.66A2.85,2.85,0,0,0,85.33,66l-.94.21L83.58,66l-.25.16a30.9,30.9,0,0,1-2.25,4.54q0,1.06-2.49,4.66-3,.33-8.72,1.44a4.83,4.83,0,0,0-1.05,2.17c-.19,1.09.18,1.3,1.37,1.33a2,2,0,0,1,.85.2l4.24-.81a1.09,1.09,0,0,0,.57.2,8.92,8.92,0,0,1-1.14,2.86,9.23,9.23,0,0,0-1.47,3.8,6.61,6.61,0,0,0-1.31,3.64,35.65,35.65,0,0,0-2,6.66,1.45,1.45,0,0,0,.16.53A11.85,11.85,0,0,0,70,99.09v1.14l-.33.58v.32a2.4,2.4,0,0,1,.49,1.39v.41l-.16.33a3.51,3.51,0,0,1,.82,1.88,7.43,7.43,0,0,0,4.94,2.41c2,0,4.33-1,7.11-2.86A14.79,14.79,0,0,0,86,102.4q2.16-.95,7.39-7.27a14.46,14.46,0,0,0,1.35-4.46l-.24-.37A54.1,54.1,0,0,1,89.54,96.72Z"/><path class="cls-2" d="M190.92,72.53c.05,0,.08.11.08.33l1.43-.37h-1.92Z"/><path class="cls-2" d="M96.61,68.85q3.31.54,3.31,4.66a14.06,14.06,0,0,1-2.74,6.54h-.94v-.53c0-.36.17-.53.49-.53v0c-.54-.57-.81-1-.81-1.22A5.14,5.14,0,0,1,96.24,76a1.3,1.3,0,0,0-.16-.4,21.09,21.09,0,0,0,.16-2.33,4.18,4.18,0,0,0-1.3-2.54C95.15,69.49,95.71,68.85,96.61,68.85Z"/><path class="cls-2" d="M107,86.63q2.94.57,2.94,2.94-.81,3.92-2.12,3.92a1.35,1.35,0,0,0-.49.16,1.41,1.41,0,0,1-1.31-1,10.62,10.62,0,0,0,.65-3.1.29.29,0,0,0-.33-.33q-2.94.41-2.94,1.8a12.33,12.33,0,0,0,2.94,7.52l.33.16a28.2,28.2,0,0,1,3.27-2.12,20.35,20.35,0,0,1,9.24-3.52,6.5,6.5,0,0,1,3.1-1.31l.16.33v.49c-.46,0-1.55.77-3.26,2.29l-10.38,5.8-.66.82a9.46,9.46,0,0,1,1.31,4.9A9.67,9.67,0,0,1,105,112a12.62,12.62,0,0,1-6.38,2.78q-4.41-.66-4.41-2.94V111c0-.9.82-2,2.45-3.43A44.58,44.58,0,0,1,104,101l.16-.33v-.32q-3.92-5.64-3.92-9c.22-2.51,1-3.76,2.45-3.76A18.46,18.46,0,0,1,107,86.63Zm-9.48,24.84v.16c0,.33.44.49,1.14.49q2.7,0,6.7-3.76a13.92,13.92,0,0,1,1-2.12v-1.31a5.89,5.89,0,0,0-.32-1.47h-.66Q97.47,109.84,97.47,111.47Z"/><path class="cls-2" d="M170.77,65c1,0,1.69.69,2,2.08a15.47,15.47,0,0,1-1.31,3.76,12,12,0,0,0-1.19,3.31h.17c-.38,1.07-.63,4.59-.74,10.59a8.58,8.58,0,0,1,.12,1.47l-.12,1.14a8.27,8.27,0,0,0,.37,1.31c-.22,0-.38,1.1-.49,3.31H170a7.17,7.17,0,0,0-.33.69l.12,1.31a7.87,7.87,0,0,0-.24,1.31h.16l-.78,5.47-.12,0a2.42,2.42,0,0,1,1.1-.2.33.33,0,0,0,.29.37c.38-.22.57-.36.57-.41l-.61.12a1.49,1.49,0,0,1,1.14-1.39c0-.08.28-.33.82-.73h.41q.45,0,.45-.09a.75.75,0,0,1-.37.09l-.08-.5,2.08-1.18h.21a1.05,1.05,0,0,1,.49.08l.69-.33h.37v.09c0,.05-.16.08-.49.08v-.94a1.62,1.62,0,0,1,.74.12l.65-.16c.19.13.19.2,0,.2,0-.27,0-.41-.08-.41l.08.17v-.78a2.7,2.7,0,0,0,1.76-.65c.24,0,.79-.38,1.63-1.15a5.79,5.79,0,0,0,2-.77H183q.24.12.12.12a2.66,2.66,0,0,1,2-1.27.66.66,0,0,1,.61-.49l.28,0,.74-.41H187c.35.06.53.33.53.82a2.57,2.57,0,0,0-1.47,1.27c-2.27,1.36-4.35,2.75-6.26,4.17a4.53,4.53,0,0,0-1.47.81l-2.65,1.56q-3.08,2.4-7,5.06c-.41.27-.61.45-.61.53s.16.26.16.78c-.22,0-.35,0-.41.16v.17a.94.94,0,0,0,.16.45,106.28,106.28,0,0,1-3.51,11.68,36.79,36.79,0,0,0-1.63,4c-2,4.06-3.31,6.52-3.89,7.39a1,1,0,0,0-.53,1,36.93,36.93,0,0,1-3.1,4.54q-1,2.2-6.17,6.74c0,.16-.38.44-1.15.82q-.69,1-5.1,3h-.54l.17.08-4.21.17q-4.46-1.23-4.45-3.72l.24-.49c-.05,0-.19-.21-.41-.61V140c.28,0,.41,0,.41.08v0h-.24v-.57q0-.45-.09-.45c.06.11.09.08.09-.08a10.64,10.64,0,0,1,1.14-2.78v-.94h.53l.25.13-.09.2-.2-.33q0-.9,2.29-4.21c0-.4.49-1,1.47-1.79.95-1.86,1.78-2.78,2.49-2.78v-.62c.27-.24,1.17-1.32,2.7-3.22l.53,0-.12-.49a6.23,6.23,0,0,0,1.71-1.88c.25,0,.66-.43,1.23-1.27a2.72,2.72,0,0,1,1.59-.9c0,.08-.17.12-.53.12,0-.46.41-.75,1.23-.86l.53.13h-.25v.53s-.17-.18-.36-.53c0-.66,1.4-2.29,4.2-4.91l5.77-5.1.2.12c.63-.79,1.12-1.19,1.47-1.19a1.24,1.24,0,0,1,.86-.89h.61c0,.24,0,.36,0,.36s.38-.24.9-.73a.4.4,0,0,0,.45-.45v-.94c.25,0,.67-.41,1.27-1.23v-.82c.24,0,.37.09.37.25a4.53,4.53,0,0,1-.25-1.14l.08-.21a1.49,1.49,0,0,1-.08-.57c.33-.16.45-.25.37-.25V100l.12-.9c-.08,0-.12-.22-.12-.65l.28-.13c-.08-.87-.12-1.52-.12-2v-.57l.25-.86s-.15,0-.37,0a13.55,13.55,0,0,0,.49-1.92,1.71,1.71,0,0,1-.12-.78c.19,0,.31-.28.36-.85-.16,0-.24-.21-.24-.62l.12-.61c0-.11-.18-.16-.45-.16l.33-.66-.12-.24c0-.6.2-.9.61-.9v.37c-.33,0-.49-.6-.49-1.8.19,0,.3,0,.33-.08a14.14,14.14,0,0,1-.45-2.09,4,4,0,0,1,.45-1.43,2.09,2.09,0,0,1-.33-1,4,4,0,0,1,.12-1l-.12-.78.08-.81c-.14,0-.2-.13-.2-.37h.36a69.84,69.84,0,0,0-4.12,6.41c-.79.47-1.19.82-1.19,1.07L162,87q-3.52,4.17-6.34,8.13a46.2,46.2,0,0,0-3.59,4,29.35,29.35,0,0,0-3.31,3.43c-.17,0-.74.48-1.72,1.43q-5.36,4.78-8.62,4.78-2.94,0-3.84-1.92a4.51,4.51,0,0,1-1.06-2.33v-.2l.24-.41v.29c-.24,0-.37-.22-.37-.66l.09-.2a4.58,4.58,0,0,1-.21-1.19l.21-.08-.09-.49c.06-.38.11-.57.17-.57l-.17-.74a6.59,6.59,0,0,0,.5-1.92c-.09,0-.13-.22-.13-.65l.37-.21a5.72,5.72,0,0,1-.08-.85,2.75,2.75,0,0,1,.57-1.31,1.29,1.29,0,0,1-.08-.57l.2-.08-.08-.29a3.14,3.14,0,0,1,.53-1.35l-.16-.53a13.36,13.36,0,0,0,1.27-3.19c.24,0,.53-.64.85-1.92.28,0,.58-.76.9-2.29.14,0,.4-.6.78-1.79a.5.5,0,0,0,.41-.25v0l-.21-.45,1.15-.77v.69h-.41v.16a1,1,0,0,1-.25-.65c.3-1,.63-1.55,1-1.55.09.16,0,.24-.28.24.41-.92.72-1.39.94-1.39,0,.08-.06,0-.17-.16A14.18,14.18,0,0,1,143,75.47a19.4,19.4,0,0,1,2.08-4.08,13.36,13.36,0,0,0,1.68-4.13,1.46,1.46,0,0,0,.57-.12q1.92.4,1.92,1.71,0,.66-3.88,7.56a76.71,76.71,0,0,0-4.7,9.89,49,49,0,0,0-4.41,14.55l.12.28-.12.86c0-.16.11-.25.32-.25a7.69,7.69,0,0,0-.32.7c.13,2.32.62,3.47,1.47,3.47h1q1.8,0,6.66-4.12a9.07,9.07,0,0,1,1.8-1.56c0-.3.42-.65,1.1-1.06q0-.33,3.92-4.33a44.74,44.74,0,0,1,3.68-4.29A41.77,41.77,0,0,1,160.19,85a12,12,0,0,1,2-3,7.69,7.69,0,0,1,2.37-2.78,3.77,3.77,0,0,1,1.31-2.7c.38.25.53.37.45.37v.25q-.57,0-.78-.78a8.72,8.72,0,0,0,2.21-5.56c.41-1.63.75-3.22,1-4.78A2.86,2.86,0,0,1,170.77,65ZM136.53,139.7c.14,2.07.61,3.11,1.43,3.11,0,.22.74.39,2.21.53q1.38,0,5.19-2l.32,0c0-.38.24-.57.7-.57a3.46,3.46,0,0,0,.41-.66,6.72,6.72,0,0,0,1.8-1.55c.27.14.34.2.2.2l-.12-.65c.41,0,1-.41,1.88-1.22v.73h-.17v.12l-.32-.45a4.71,4.71,0,0,1,1.88-1.51l.36-.41v.21h-.24v-.9c.22,0,.76-.72,1.63-2.17h.53l-.12,0V133a1.19,1.19,0,0,1-.16-.73l.9-1.07.24.13c0,.05,0,.08-.12.08l.12.16v-1.14a4,4,0,0,0,1-1.55q.21,0,.09.24H156a32.3,32.3,0,0,1,2.13-3.6,2.59,2.59,0,0,1,.94-1.75l0-.08q0-.74,2.16-4.62h.53l-.24.53c-.36,0-.53-.22-.53-.65a40.63,40.63,0,0,0,2-5.48,45.5,45.5,0,0,1,1.92-6.13c0,.19-.12.29-.37.29a8.73,8.73,0,0,0,.49-.86h.08a201.37,201.37,0,0,0-16.79,15.65q-11,12.63-11.4,16.38C136.79,138.76,136.67,139.08,136.53,139.7Zm4.21-10.62v-.49h-.41v.49Zm1.8,15.65v-.37h-.41v.37Zm.61-18.55v-.29h-.24v.29ZM152.3,116v-.41h-.16s-.08,0-.08.08v.41A.54.54,0,0,1,152.3,116Zm3.84-24.07h-.28v.28h.24S156.14,92.13,156.14,91.94Zm1.27-1.64v-.24s0,0-.08,0h-.2v.2c0,.06,0,.08.08.08Zm.66-1.14h-.29v.37H158S158.07,89.4,158.07,89.16Zm.49-.69v-.09h-.21l.33-.24c0,.24,0,.37,0,.37h-.2A0,0,0,0,0,158.56,88.47Zm1.79-2v-.16h-.2c-.06,0-.08,0-.08.08S160.16,86.5,160.35,86.5Zm1.15-1.67V84.3h-.41v.53Zm3.14,19.49v1a.92.92,0,0,0-.85.65c-.11,0-.17.11-.17.33a2.45,2.45,0,0,0-1-.33v-.45C162.6,105.07,163.28,104.67,164.64,104.32Zm1.31,2.25v-.37h-.53v.37Zm6.87-7.32v-.2h-.09s-.08.09-.08.28h0C172.78,99.33,172.82,99.31,172.82,99.25Zm1.51-.81V98h-.41v.41Z"/><path class="cls-2" d="M190.26,90l.53-.12q5-.42,5.44,1.14c.16-.05.64.75,1.43,2.41a9,9,0,0,1-.16,3.27l-.05-.12h0q1-.21,7.16-4.95a4.56,4.56,0,0,1,1.3-.61q.62,2-6.54,7.72a11.79,11.79,0,0,1-3.47,1.64,32.06,32.06,0,0,1-4.58,4.12,8,8,0,0,0-1.06.41,5.73,5.73,0,0,1-6.09-2.16,20.84,20.84,0,0,1-1-2q-1.63-5.15,2.29-8.21a7,7,0,0,1,4-2.16C189.34,90.3,189.64,90.18,190.26,90Zm-4.53,9.27.12.37c.52,1.69,1.12,2.6,1.8,2.74a3.57,3.57,0,0,0,1.84-.08c1.49-.9,2.3-1.51,2.41-1.84v0q-3.84-1.76-4.7-4.37c-.08,0-.16-.11-.25-.41a7.09,7.09,0,0,0-.16-1.39h0A5.38,5.38,0,0,0,185.73,99.29Zm4.37-3.84q1.35,3,3.6,2.45l.4-.08a5.2,5.2,0,0,0,1.19-3.35c-.74-1.85-1.61-2.65-2.62-2.41,0-.16-.21-.2-.49-.12C190.2,92.43,189.5,93.6,190.1,95.45Z"/><path class="cls-2" d="M206.53,90.71a3,3,0,0,1,1.63.66q0,.57-2.94,5.23a13.77,13.77,0,0,0-1,4.57c.22.49.43.77.65.82q1.63,0,6.54-4.09,2.53-2.49,5.88-6.53a7.33,7.33,0,0,1,2-.33h.49c.17,0,.39.27.66.82a11.63,11.63,0,0,1-2,2.61,18,18,0,0,0-1.64,3.92v1.48c0,.13.28.4.82.81q2.42,0,9.73-7.52a6.53,6.53,0,0,1,2.45-2.28H230c.22,0,.33.13.33.32q-1.23,3.81-6.62,9.65-3.1,2.78-6.05,2.77h-.16q-2.91,0-4.42-4.08-5.15,5.07-6.7,5.07a7.55,7.55,0,0,1-2,.32q-2.7,0-3.43-3.59v-.17q0-4.86,4.41-10.13A3.76,3.76,0,0,0,206.53,90.71Z"/><path class="cls-3" d="M.6,1.83H13.82V81.3H.6Z"/><path class="cls-3" d="M59.48,1.83V14.49H49V81.3H35.74V14.49H25.22V1.83Z"/><path class="cls-3" d="M70.69,1.79H86.57v12.3L82.13,29.26H72.88l2.3-13H70.69Z"/><path class="cls-3" d="M100.16,17.74Q100.16.59,117.27.6t17.15,17.14V29H121.2V17.74c0-3-1.29-4.45-3.89-4.48h-.08c-2.56,0-3.85,1.49-3.85,4.48v7.07q0,4.85,10.17,12.15,10.88,7.74,10.87,18.58v9.84q0,17.19-17.11,17.19T100.16,65.38V54.11h13.22V65.38q0,4.49,3.93,4.49c2.6,0,3.89-1.5,3.89-4.49V56.49q0-5.28-10.16-12.58-10.87-7.75-10.88-18.86Z"/><path class="cls-3" d="M172.25,1.83h13.06L194.12,41V1.83H206.5V81.3H193.44L185,43.23V81.3H172.25Z"/><path class="cls-3" d="M220.89,1.83H252V14.49h-17.9V35.21h15.4v12.7h-15.4V68.64H252V81.3H220.89Z"/><path class="cls-3" d="M308.24,60.3l7.07-58.47h13.33l-3.77,28.5-8,51H299.71l-5-43-4.92,43H272.67l-8.06-51L260.84,1.83h13.3l7.07,58.47,7.06-58.47h12.9Z"/></svg>