<svg id="Layer_1" data-name="Layer 1" xmlns="http://www.w3.org/2000/svg" viewBox="0 0 64.81 28.6"><defs><style>.cls-1{fill:#009490;}</style></defs><title>lantana-at-beach-logo</title><rect class="cls-1" x="0.42" width="1.07" height="13.21"/><path class="cls-1" d="M13.41,13.21V4.11H12.33V5.89a4.38,4.38,0,0,0-3.75-2A4.68,4.68,0,0,0,3.86,8.66a4.68,4.68,0,0,0,4.72,4.75,4.37,4.37,0,0,0,3.75-2v1.79Zm-4.76-.84a3.72,3.72,0,0,1,0-7.43,3.67,3.67,0,0,1,3.68,3.72A3.66,3.66,0,0,1,8.65,12.37Z"/><path class="cls-1" d="M20.41,3.91A3.47,3.47,0,0,0,17.3,5.55V4.11H16.23v9.1H17.3V8.41c0-2.17,1.14-3.47,3-3.47a2.38,2.38,0,0,1,2.54,2.63v5.64H24V7.57A3.38,3.38,0,0,0,20.41,3.91Z"/><path class="cls-1" d="M27.55,10.87a2.37,2.37,0,0,0,.7,1.92,2.67,2.67,0,0,0,1.8.52,7.29,7.29,0,0,0,1.17-.1h.08v-1h-.1c-1.05.09-1.83.13-2.22-.23a1.47,1.47,0,0,1-.34-1.13V5.16H31.3v-1H28.64V1.58l-1.09.32V4.11h-2v1h2Z"/><path class="cls-1" d="M41.32,11.42v1.79h1.09V4.11H41.32V5.89a4.38,4.38,0,0,0-3.75-2,4.68,4.68,0,0,0-4.71,4.75,4.68,4.68,0,0,0,4.71,4.75A4.37,4.37,0,0,0,41.32,11.42Zm-3.68.95a3.72,3.72,0,0,1,0-7.43,3.67,3.67,0,0,1,3.68,3.72A3.66,3.66,0,0,1,37.64,12.37Z"/><path class="cls-1" d="M46.46,8.41c0-2.17,1.13-3.47,3-3.47A2.38,2.38,0,0,1,52,7.57v5.64h1.09V7.57a3.39,3.39,0,0,0-3.56-3.66,3.47,3.47,0,0,0-3.1,1.64V4.11H45.39v9.1h1.07Z"/><path class="cls-1" d="M63.72,4.11V5.89a4.35,4.35,0,0,0-3.75-2,4.68,4.68,0,0,0-4.71,4.75A4.68,4.68,0,0,0,60,13.41a4.34,4.34,0,0,0,3.75-2v1.79h1.09V4.11ZM60,12.37a3.66,3.66,0,0,1-3.69-3.71,3.69,3.69,0,1,1,7.37,0A3.65,3.65,0,0,1,60,12.37Z"/><path class="cls-1" d="M18.2,19.1a4.29,4.29,0,0,0-3.75,2v-5.4H13.38V28.4h1.07V26.57a4.31,4.31,0,0,0,3.75,2,4.75,4.75,0,0,0,0-9.5Zm3.64,4.75a3.7,3.7,0,1,1-3.69-3.71A3.66,3.66,0,0,1,21.84,23.85Z"/><path class="cls-1" d="M29.16,19.1a4.58,4.58,0,0,0-4.71,4.75,4.61,4.61,0,0,0,4.78,4.75,4.47,4.47,0,0,0,4-2.06l0-.08-.94-.56,0,.08a3.31,3.31,0,0,1-3,1.58,3.55,3.55,0,0,1-3.69-3.16h8.08v-.09a1.27,1.27,0,0,1,0-.2c0-.08,0-.15,0-.22A4.55,4.55,0,0,0,29.16,19.1Zm-3.6,4.25a3.52,3.52,0,0,1,3.6-3.21,3.36,3.36,0,0,1,3.38,3.21Z"/><path class="cls-1" d="M43.42,21.08a4.35,4.35,0,0,0-3.75-2,4.75,4.75,0,0,0,0,9.5,4.34,4.34,0,0,0,3.75-2V28.4h1.09V19.3H43.42Zm0,2.77a3.69,3.69,0,1,1-3.68-3.71A3.65,3.65,0,0,1,43.42,23.85Z"/><path class="cls-1" d="M54.24,25.75a3.47,3.47,0,0,1-3.14,1.81,3.71,3.71,0,0,1,0-7.42,3.28,3.28,0,0,1,3.08,1.8l0,.09.89-.52,0-.07a4.24,4.24,0,0,0-4-2.34,4.75,4.75,0,1,0,0,9.5,4.47,4.47,0,0,0,4-2.32l0-.07-.9-.54Z"/><path class="cls-1" d="M61.12,19.1A3.47,3.47,0,0,0,58,20.74v-5H56.94V28.4H58V23.6c0-2.17,1.13-3.46,3-3.46a2.37,2.37,0,0,1,2.54,2.62V28.4h1.09V22.76A3.38,3.38,0,0,0,61.12,19.1Z"/><path class="cls-1" d="M9.23,18.4a5.38,5.38,0,0,0-1.72-1.16,5.34,5.34,0,0,0-4.2,0A5.49,5.49,0,0,0,1.59,18.4,5.34,5.34,0,0,0,.43,20.11,5.13,5.13,0,0,0,0,22.21a5.21,5.21,0,0,0,.43,2.11A5.45,5.45,0,0,0,1.59,26a5.64,5.64,0,0,0,1.72,1.15,5.13,5.13,0,0,0,2.1.43,5.32,5.32,0,0,0,3.2-1.05l.17-.13-.13-.18-.16-.2-.17-.2-.13-.15L8,25.82a4.78,4.78,0,0,1-1.22.6,4.26,4.26,0,0,1-1.39.22,4.38,4.38,0,0,1-1.73-.34,4.55,4.55,0,0,1-1.41-.95A4.48,4.48,0,0,1,1.33,24,4.3,4.3,0,0,1,1,22.23a4.4,4.4,0,0,1,.35-1.74,4.45,4.45,0,0,1,.94-1.42,4.7,4.7,0,0,1,1.41-.94,4.43,4.43,0,0,1,3.45,0,4.7,4.7,0,0,1,1.41.94,4.63,4.63,0,0,1,.94,1.42,4.38,4.38,0,0,1,.35,1.73,2.05,2.05,0,0,1-.37,1.3,1.05,1.05,0,0,1-.84.37H8.13V19.62H7.26v.21c0,.15,0,.3,0,.45a2.83,2.83,0,0,0-.42-.34,3.23,3.23,0,0,0-.65-.3,2.37,2.37,0,0,0-.76-.12,2.72,2.72,0,0,0-1.07.21,2.91,2.91,0,0,0-.87.59,2.79,2.79,0,0,0-.58.85,2.66,2.66,0,0,0,0,2.12,2.67,2.67,0,0,0,.58.85,2.88,2.88,0,0,0,.87.58,2.72,2.72,0,0,0,1.07.21,2.49,2.49,0,0,0,.78-.11,2.49,2.49,0,0,0,.66-.29,2.54,2.54,0,0,0,.36-.29v.6H8.57a2.42,2.42,0,0,0,.74-.11,1.71,1.71,0,0,0,.72-.42,2.2,2.2,0,0,0,.53-.81,3.9,3.9,0,0,0,.25-1.26h0a5.19,5.19,0,0,0-.43-2.12A5.48,5.48,0,0,0,9.23,18.4ZM7,22.9a2,2,0,0,1-.37.56,1.72,1.72,0,0,1-.55.37,1.88,1.88,0,0,1-1.4,0,1.62,1.62,0,0,1-.55-.37,1.76,1.76,0,0,1-.37-.56,1.67,1.67,0,0,1-.14-.67,1.74,1.74,0,0,1,.14-.69A2,2,0,0,1,4.15,21a1.62,1.62,0,0,1,.55-.37,1.78,1.78,0,0,1,.7-.14,1.82,1.82,0,0,1,.7.14,1.72,1.72,0,0,1,.55.37,2,2,0,0,1,.37.56,1.73,1.73,0,0,1,.13.69A1.67,1.67,0,0,1,7,22.9Z"/></svg>