<svg id="Layer_1" data-name="Layer 1" xmlns="http://www.w3.org/2000/svg" viewBox="0 0 32.8 73.97"><defs><style>.cls-1{fill:#fff;}</style></defs><title>two</title><path class="cls-1" d="M32.8,74H0V57.23c0-6.81,3.4-12.69,10.11-17.48,7-5,8.51-8.08,8.52-9.77V16.45c0-2.53-1.12-2.74-2.18-2.74s-2.28.21-2.28,2.74V27.63H0V16.45C0,5.69,5.67,0,16.38,0S32.8,5.69,32.8,16.45V30.23c0,6.93-3.41,12.89-10.15,17.7-7,5-8.48,8.29-8.48,10.15v2.21H32.8ZM2.46,71.51H30.34V62.75H11.71V58.08c0-3.6,3.11-7.57,9.51-12.15,6.14-4.39,9.12-9.52,9.12-15.7V16.45c0-9.41-4.57-14-14-14S2.46,7,2.46,16.45v8.72h9.25V16.45c0-3.3,1.7-5.2,4.67-5.2s4.71,1.9,4.71,5.2V30c0,3.34-3.15,7.18-9.55,11.76-6.11,4.36-9.08,9.43-9.08,15.48Z"/></svg>