<svg id="Layer_1" data-name="Layer 1" xmlns="http://www.w3.org/2000/svg" viewBox="0 0 32.8 75.06"><defs><style>.cls-1{fill:#fff;}</style></defs><title>number-three</title><path id="Three" class="cls-1" d="M16.42,75.06C5.68,75,0,69.34,0,58.6V47.43H14.06V58.6c.06,2.28,1,2.75,2.36,2.75s2.26-.47,2.32-2.78V46.86c0-2.29-.43-2.73-.44-2.73A5.77,5.77,0,0,0,16.66,44H11.18V30.31h6.26a2.69,2.69,0,0,0,1-.12h0a7,7,0,0,0,.3-2.59V16.45c-.06-2.27-1-2.74-2.32-2.74s-2.3.47-2.36,2.78V27.63H0V16.45C0,5.72,5.68,0,16.42,0S32.8,5.69,32.8,16.45V27.67c0,4.36-1.24,7.58-3.71,9.6,2.47,2,3.71,5.23,3.71,9.59V58.6C32.8,69.37,27.14,75.06,16.42,75.06Zm-14-25.17V58.6c0,9.4,4.57,14,14,14S30.34,68,30.34,58.6V46.86c0-4.32-1.32-7.1-4-8.5l-2.13-1.1,2.13-1.09c2.72-1.4,4-4.18,4-8.5V16.45c0-9.41-4.55-14-13.92-14s-14,4.6-14,14v8.72H11.6V16.45c.12-4.53,3.07-5.2,4.82-5.2s4.66.67,4.78,5.17V27.6c0,2.65-.47,4.11-1.53,4.72a4.48,4.48,0,0,1-2.23.45h-3.8v8.75h3a6.66,6.66,0,0,1,2.68.39c1.67.72,1.86,3.17,1.86,5V58.6c-.12,4.54-3.05,5.21-4.78,5.21s-4.7-.67-4.82-5.17V49.89Z"/></svg>