<svg id="Layer_1" data-name="Layer 1" xmlns="http://www.w3.org/2000/svg" viewBox="0 0 39 29"><defs><style>.cls-1{fill:#42b6e6;}</style></defs><title>print</title><path class="cls-1" d="M11,26.58H28V21.75H11ZM11,14.5H28V7.25h-3a1.82,1.82,0,0,1-1.82-1.81v-3H11Zm21.75,1.21a1.21,1.21,0,1,0-1.21,1.21A1.22,1.22,0,0,0,32.79,15.71Zm2.42,0v7.85a.63.63,0,0,1-.61.61H30.38v3A1.82,1.82,0,0,1,28.56,29H10.44a1.82,1.82,0,0,1-1.82-1.81v-3H4.4a.63.63,0,0,1-.61-.61V15.71a3.66,3.66,0,0,1,3.63-3.63h1.2V1.81A1.82,1.82,0,0,1,10.44,0H23.12a5,5,0,0,1,3.1,1.28l2.87,2.87a5,5,0,0,1,1.28,3.1v4.83h1.21a3.65,3.65,0,0,1,3.63,3.63Z"/></svg>