<svg id="Layer_1" data-name="Layer 1" xmlns="http://www.w3.org/2000/svg" xmlns:xlink="http://www.w3.org/1999/xlink" viewBox="0 0 259.63 143.49"><defs><style>.cls-1{fill:none;}.cls-2{clip-path:url(#clip-path);}.cls-3{fill:#ffc600;}.cls-3,.cls-4,.cls-5,.cls-6{fill-rule:evenodd;}.cls-4{fill:#90c9c5;}.cls-5{fill:#eeece9;}.cls-6{fill:#009490;}</style><clipPath id="clip-path"><rect id="SVGID" class="cls-1" width="259.63" height="771.49"/></clipPath></defs><title>shapes-01</title><g class="cls-2"><path class="cls-3" d="M235.15,50.86h23a23.11,23.11,0,0,1,23.05,23v69.14H258.2a23.11,23.11,0,0,1-23-23.05V50.86Z"/><path class="cls-3" d="M153.22,111.87V81.37a30.59,30.59,0,0,0-30.5-30.51H92.22v61Z"/><path class="cls-4" d="M153.22,143v-30.5a30.59,30.59,0,0,0-30.5-30.51H92.22v61Z"/><path class="cls-5" d="M161.2,143V113.48C161.2,97.24,176.1,84,194.32,84h33.13V143Z"/><path class="cls-4" d="M161.2,110.08V80.55C161.2,64.31,176.1,51,194.32,51h33.13v59.05Z"/><path class="cls-6" d="M204.27,43.67h-36a36.12,36.12,0,0,1-36-36h0a36.11,36.11,0,0,1,36-36h36v72Z"/><path class="cls-5" d="M171.48-28.34a8.19,8.19,0,0,1-.1,1.37c-.48.4-.25.17-.36.65-.19.8-.36.44-.44,1.18l-.05.55c-.08,1.43-.29,2.39-.33,3.92,0,.54.19,1,.22,1.55a7.84,7.84,0,0,1,.08,1.41l-.22,2.34c-.08.41-.15.34-.23.7-.46,2,.3,1.91.57,3.31a18.43,18.43,0,0,0,.75,3.06c.47,1,1,5.26,2.27,6.18,1.12,1.12.26,1.46,1.51,2.85.74.82,1,2.53,1.33,3.24.59,1.24,1.12,1,1.93,3.34.69,2,.82,1.26,1.44,2.5l.9,2.11c.24.83.93,1,1.07,1.92a18.11,18.11,0,0,1,.35,2.4,5.87,5.87,0,0,0,.73,1.94,15.25,15.25,0,0,0,.94,1.68c.53.61.38,1.26,1.23,1.58l-.06,0a8.22,8.22,0,0,0,1.66,3c1.55,2.92.92.72,2,2.7.79,1.48,2.36,2,2.54,3.33.56.3.19.61.49,1.32a2.7,2.7,0,0,0,.71,1.13c.28.42.43.3.63.86a3.09,3.09,0,0,0,.48,1c.78,1.12.54,1.78,1.82,3.33l.17.19c.64.78.14.84.46,1.35s.46,0,.55,1.12c.62.39.5,1.32,1.11,1.76A11.42,11.42,0,0,1,199,43.67h5.32v-72Z"/><path class="cls-3" d="M186.11-28.34c-.15.36-.28.23-.34.83l-.05.56c-.09,1.43-.29,2.39-.33,3.92,0,.54.19,1,.22,1.55a8.82,8.82,0,0,1,.08,1.41l-.22,2.34c-.08.41-.15.34-.23.7-.47,2,.3,1.91.56,3.31a18.48,18.48,0,0,0,.76,3.06c.46,1,1,5.26,2.27,6.18,1.12,1.12.26,1.46,1.51,2.85.74.82,1,2.53,1.32,3.24.6,1.23,1.13,1,1.93,3.34.7,2,.82,1.26,1.45,2.5l.9,2.11c.24.83.93,1,1.06,1.92a15.07,15.07,0,0,1,.35,2.4,6,6,0,0,0,.73,1.93A13.22,13.22,0,0,0,199,17.5c.53.6.38,1.26,1.23,1.58l-.06,0a8.44,8.44,0,0,0,1.65,3.05c1.55,2.92.92.71,2,2.7a4,4,0,0,0,.44.66V-28.34Z"/><path class="cls-4" d="M152.84-8.34c-1-.06-1.47.32-2.47.18a8.51,8.51,0,0,0-1.22-.11c-.55,0-.62-.27-1.1-.32s-.63.11-1.15,0c-2.07-.27-1,.18-3.71-.56A5.37,5.37,0,0,0,142-9.19c-.65-.07-.39-.3-1.07-.37a7.43,7.43,0,0,1-2.41-.37,11.8,11.8,0,0,1-1.23-.62,35.72,35.72,0,0,0-5,18.21h0a36.16,36.16,0,0,0,26.49,34.72,2.23,2.23,0,0,0,0-.4c0-.26-.07-.29-.06-.59.05-1.67.58-1.48.71-1.81a2.77,2.77,0,0,0-.2-1.24c-.22-.49-.51-.37-.3-1.06.45-1.5,0-1.52,0-3,.6-.84.15-.77.45-1.48.24-.55.57-.75.18-1.53-.52-1.06.17-2,.26-3.21l.3-2.4c0-.54-.21-.18,0-.76.32-1,.85-1.67,1.14-2.7.56-1.94.89-1.95,1-2.9.11-.7.55-.76.52-1.27,0-1.07-.4-.27-.1-1.44.14-.56-.27-1,.1-1.7.18-.31.61-.76.81-1.11s.32-.86.6-1.32.56-.56.68-1.16c1.74-.78,1.36-1,1.49-2.8.7-.66.75-1.44,3-3.61a6,6,0,0,0,.73-.95c.59-.76,1.16-.67,0-2.12-.4-.49-.58-.31-1-.68-.74-.63,0-.31-1.08-.61a5.06,5.06,0,0,1-1-.66c-.47-.32-.7-.23-1.12-.56a4.43,4.43,0,0,0-1-.63,7.89,7.89,0,0,1-2.06-1.29c-.56-.4-.54-.06-1-.72s-.51-.49-.85-.85-.43-.79-.95-.88a2.75,2.75,0,0,1-.95-.52c-.13-.28-.12-.27-.46-.3-.59-.44-.65.12-1.36-.91a2.2,2.2,0,0,0-1.29-.94,1.22,1.22,0,0,1-.5-.9,11.21,11.21,0,0,0-1.3.06c-.27,0-.45,0-.68,0-.6,0-.26-.12-.62.18Z"/><path class="cls-4" d="M276.28,43.67v-36a36.11,36.11,0,0,0-36-36h-36v72Z"/></g></svg>