<svg id="Layer_1" data-name="Layer 1" xmlns="http://www.w3.org/2000/svg" viewBox="0 0 144.36 146.71"><defs><style>.cls-1{fill:#90c9c5;}.cls-1,.cls-2,.cls-3,.cls-4{fill-rule:evenodd;}.cls-2{fill:#eeece9;}.cls-3{fill:#ffc600;}.cls-4{fill:#009490;}</style></defs><title>corner</title><path class="cls-1" d="M144.36,112.28c0,18.93-16.24,34.43-36.09,34.43H72.18V77.84h72.18"/><path class="cls-2" d="M0,146.71V112.28C0,93.34,16.24,77.84,36.09,77.84H72.18v68.87Z"/><path class="cls-3" d="M144.1,0V35.85a36.05,36.05,0,0,1-36,35.86H72V35.85A36,36,0,0,1,108.07,0Z"/><path class="cls-4" d="M26.1,26V48.85a23,23,0,0,0,23,22.86H72V48.85A23,23,0,0,0,49.07,26Z"/></svg>